<?xml version="1.0" encoding="utf-8"?>
<!-- Generator: Adobe Illustrator 25.2.1, SVG Export Plug-In . SVG Version: 6.00 Build 0)  -->
<svg version="1.1" id="Calque_1" xmlns="http://www.w3.org/2000/svg" xmlns:xlink="http://www.w3.org/1999/xlink" x="0px" y="0px"
	 viewBox="0 0 344.8 354.5" style="enable-background:new 0 0 344.8 354.5;" xml:space="preserve">
<style type="text/css">
	.st0{fill:#056D96;}
	.st1{fill:#065271;}
	.st2{fill:none;stroke:#FFFFFF;stroke-width:0.75;stroke-miterlimit:10;}
	.st3{fill:none;stroke:#18A2DD;stroke-width:0.75;stroke-miterlimit:10;}
	.st4{fill:#009BD6;}
	.st5{fill:#FFFFFF;}
	.st6{fill:#9CD5F0;}
	.st7{fill:none;stroke:#065271;stroke-miterlimit:10;}
	.st8{fill:#E72D80;}
	.st9{fill:none;stroke:#FFFFFF;stroke-miterlimit:10;}
	.st10{fill:#FFD500;}
	.st11{fill:#18A2DD;}
	.st12{fill:#E6F4FC;}
	.st13{fill:#EE8CB9;}
	.st14{fill:none;stroke:#FFFFFF;stroke-miterlimit:10;stroke-dasharray:0,0,4.02,4.02;}
	.st15{fill:#FFEB81;}
	.st16{fill:#F9D1E4;}
</style>
<rect x="57.7" y="339.6" class="st0" width="13" height="13.9"/>
<path class="st1" d="M115.6,320.5c0,0,35,16.1,39.2,19.8s32.6,14.3,32.6,14.3h20.6c0,0-51.1-47.3-65.1-55.1S115.6,320.4,115.6,320.5
	L115.6,320.5z"/>
<path class="st2" d="M112.1,152c0,0,5,7.6,6.3,15.6s-0.9,10.3-2.8,11.2s-6.2,1.1-7.1,1.9s-2.9,7.1-2.9,7.1l-11.1-6.2l3.1-6.4
	c0,0-7.2-1.9-9.8-4.7s-6.1-11.9-3.6-16.5s7.7-8.8,14.6-8.6S112.1,152,112.1,152L112.1,152z"/>
<path class="st0" d="M123.6,282.5c7.1,0.6,23.8,0.1,29.6,3.7s0,68.3,0,68.3h-21.9c0,0-4.3-34.2-2.1-37.4c-6.1,1.8-50.6,7.9-71.8,7.2
	S22.4,297.4,25,283.8C35,282.4,115.6,281.8,123.6,282.5L123.6,282.5z"/>
<path class="st3" d="M163.4,249.5c0,0,3.8-2.7,5.2-3.1s2.2,0.1,3.6,0s4-3.2,5.9-3.4s10.5,3,10.4,5.3c-1.5,1.5-5.6-2.1-6.1-1
	c0.1,1.5-1.5,2.5-2.7,2.8c0.6,0.6,0,1.6-0.9,1.9s-6.1,0-6.1,0L163.4,249.5L163.4,249.5z"/>
<path class="st4" d="M27.6,285c0,0,15.5-48,21.2-60.6s21.2-36.1,35.8-37.8c2.7-4.2,5.5-7.5,7.7-7.5s15.2,8.1,16.4,9.1
	s0.7,1.7,0.7,1.7s7.2,3.7,9.6,12.6s8.8,31.9,8.6,46.1c3.3-0.4,21.3-1.3,39.2-2.3c5.4,3.2,2.6,17.1,2.6,17.1s-50.5,12.1-58.7,9.4
	S99,251.3,99,251.3s-9.6,32.1-18.2,32.9C79.3,284.2,27.6,285,27.6,285L27.6,285z"/>
<path class="st5" d="M110.2,171.6c0,0,2.4,0.6,4,0.7s2.2-0.3,2.2-0.3s0.2,3-1,3.4C112.6,176.2,110.2,171.6,110.2,171.6L110.2,171.6z
	"/>
<path class="st1" d="M106.9,166.5c0,0-2.5-5-5.7-4.1s-4.6,8.2,0,8.7c-0.6,2.6-2.6,4.9-3,5.4s-9.6-1-13.4-6s-3.7-6.7-4-10.6
	s2.3-10.6,5.2-14s6.7-4.9,11.9-5.9c4.2-0.8,10.6-0.6,15.1,0.3s5.2,6.6,5.1,9.4s-5.7,8.5-10.9,9.4
	C107.2,161.5,106.9,166.5,106.9,166.5L106.9,166.5z"/>
<path class="st6" d="M35,322c0,0,25.5,0.5,34.7,0s43.7-4.2,50.2,0.5s-6.4,17.8-17.3,20s-45.2,0-49,0s-15.9-2.1-19.5-2.4
	s-15.9,1-18.8,0s-5.2-4-5.5-6.2s-0.5-5.8,1.4-7.5s11.1-3.4,13.4-3.4c-2-2.9-5.8-16.7-7-21.4s-5.7-45.2-6.9-52.1S1.5,229.1,0.5,223
	s-1.9-14.8,9-19.5s18.8,14.3,20.2,22.8s-0.5,49,1,64S35,321.9,35,322L35,322z"/>
<path class="st6" d="M175.5,255.5v-3.8h4.4c0,0-0.2-1.4,0.4-1.7c0.9,0,2.6,0,2.6,0s0.6,0,0.6,1.4c0.6,0,3,0,3,0s-0.1-1.9,0.4-1.9
	s19.9-1.3,19.9-1.3s0.8-0.1,0.8,1.3c1.2-0.1,4.4-0.1,4.4-0.1s-0.1-1.8,0.5-1.8s3.6,0,3.6,0s0.5,0.4,0.5,1.3c1-0.1,2.5-0.3,2.5-0.3
	v4.9L175.5,255.5L175.5,255.5z"/>
<path class="st7" d="M8.9,203.7c0,0,10.5,16.9,12.6,27.1s3.1,63.8,4,71.4s2.9,15,4.8,18.3"/>
<path class="st7" d="M21.2,324.1c0,0,1.4,5.7,5,7.6s14,2.9,28.8,1.4s20.5-1.2,25.2-0.5s13.3,5.7,18.8,5.7s10,0.6,13.8-0.8"/>
<path class="st8" d="M194.5,181.4c-5.8-5.5-12-8.5-14.6-7.2c-0.5,0.7-0.9,1.4-1.2,2.1c-0.1,3,3,8.3,8.1,13.1
	c5.1,4.9,10.5,7.8,13.5,7.5c0.7-0.4,1.4-0.8,2-1.3C203.5,193,200.2,186.9,194.5,181.4L194.5,181.4z"/>
<path class="st9" d="M287.4,109.1c0,0-0.5-0.5,0.4-1.4c0.8-0.9,9.8-8.5,11.4-8.7c1.7-0.2,4.2,1.9,6.7,4.8c3.6-0.1,7.5,1.5,11.4,3.9
	c2.8-4.5,4.5-9.8,4.5-15.4c0-16.1-13-29.2-29.1-29.2s-29.1,13.1-29.1,29.2c0,12.2,7.5,22.7,18.2,27
	C282.5,112.6,287.4,109.1,287.4,109.1L287.4,109.1z"/>
<path class="st2" d="M281.2,80.7c0,0-2.9,6.3-3,12.5c-0.1,6.2,1.8,7.7,3.4,8.2s4.8,0.2,5.6,0.6s3,5.1,3,5.1l7.7-5.9l-3.1-4.5
	c0,0,5.2-2.3,6.9-4.7s3.3-9.7,0.9-12.9s-6.8-5.8-12-4.8S281.2,80.7,281.2,80.7L281.2,80.7z"/>
<path class="st5" d="M284,96.1c0,0-1.4,0.6-2.4,0.8s-1.4,0-1.4,0s0.1,1.8,0.9,2C283,99.1,284,96.1,284,96.1L284,96.1z"/>
<path class="st0" d="M76.6,277c4.1,1.9,9.9,10.2,11.7,14.8s7.6,24.7,5.9,31.3s-9.4,5.6-10.7,0.7s2.5-28.7-7.9-37.4
	s-44.9-3.6-50.7-2.6s-4.5-5.3-1.9-5.6S67.8,273,76.6,277L76.6,277z"/>
<rect x="159.6" y="268.2" class="st10" width="12.6" height="86.3"/>
<rect x="237.7" y="261.3" class="st10" width="8.5" height="92.2"/>
<circle class="st10" cx="194.3" cy="181.4" r="6.9"/>
<path class="st0" d="M239.3,250.5c-3.7-5.1-11.9-4.2-11.9-4.2l1.6-40.4c0,0-17-31.1-19.8-33.5c0.7,0,4.8-4.4,0-9.1
	s-14.1,8.2-14.1,8.2l7.8,10.8l3.3-5.7l17.4,31.7c0,0-1.6,35.5-1.8,39.4c-3.5,0.3-13.9,6.4-13.9,6.4S242.9,255.7,239.3,250.5
	L239.3,250.5z M225.4,246.5H224l1.3-39.9l-17.4-31.1l0.9-0.9l17.9,31.9L225.4,246.5L225.4,246.5z"/>
<path class="st11" d="M231.6,135.8h2.9c0.6,0,1.1,0.6,1,1.2l-14,83.9c-0.1,0.5-0.5,0.9-1,0.9h-2.9c-0.6,0-1.1-0.6-1-1.2l14-83.9
	C230.6,136.1,231.1,135.8,231.6,135.8z"/>
<path class="st1" d="M234,136.6c0,0,5.8,2.5,6.9,10.6s-0.7,42.9-6,56.1s-11.3,17.6-14.3,18.1S234,136.6,234,136.6L234,136.6z"/>
<path class="st1" d="M237.1,185.9l10.4,4.7l-5.2,54c0,0,5.6,1.9,7.9,3.3s5.6,5,5.6,5l-37.7,1.3c0,0,6.9-5.7,9.8-6.7s9.1-2.3,9.1-2.3
	l6.6-51.1l-7.4-3.4L237.1,185.9L237.1,185.9z"/>
<path class="st11" d="M201.1,174.6c-6.2-6-15.3-6.6-20.4-1.4c-0.4,0.4-0.7,0.8-1,1.2c2.6-1.3,8.8,1.7,14.5,7.3
	c5.7,5.6,9,11.7,7.7,14.3c0.4-0.3,0.8-0.7,1.2-1.1C208.2,189.7,207.3,180.6,201.1,174.6L201.1,174.6z"/>
<path class="st10" d="M263.7,254.2l0.5,10.5c0.1,1.5-1.1,2.8-2.6,2.9l-116.4,5.4c-1.5,0.1-2.8-1.1-2.9-2.6l-0.5-10.5
	c-0.1-1.5,1.1-2.8,2.6-2.9l116.4-5.4C262.3,251.5,263.6,252.7,263.7,254.2z"/>
<path class="st11" d="M94.8,119.1h9.9c1.1,0,1.9,0.9,1.9,2l-0.1,2.5c-0.1,1.5,1.6,2.5,2.9,1.7l9.2-5.8c0.3-0.2,0.7-0.3,1-0.3h125
	c1.1,0,1.9-0.8,1.9-1.9V71c0-1.1-0.9-1.9-1.9-1.9H94.8c-1.1,0-1.9,0.8-1.9,1.9v46.2C92.9,118.3,93.8,119.1,94.8,119.1z"/>
<path class="st12" d="M105.9,88H210c0.9,0,1.6,0.7,1.6,1.6v1.1c0,0.9-0.7,1.6-1.6,1.6H105.9c-0.9,0-1.6-0.7-1.6-1.6v-1.1
	C104.2,88.7,105,88,105.9,88z"/>
<path class="st12" d="M138.5,95.2H210c0.9,0,1.6,0.7,1.6,1.6v1.1c0,0.9-0.7,1.6-1.6,1.6h-71.5c-0.9,0-1.6-0.7-1.6-1.6v-1.1
	C136.9,95.9,137.6,95.2,138.5,95.2z"/>
<path class="st12" d="M105.6,95.2h26c0.9,0,1.6,0.7,1.6,1.6v1.1c0,0.9-0.7,1.6-1.6,1.6h-26c-0.9,0-1.6-0.7-1.6-1.6v-1.1
	C104,95.9,104.7,95.2,105.6,95.2z"/>
<path class="st12" d="M166.1,102.3h44c0.9,0,1.6,0.7,1.6,1.6v1.1c0,0.9-0.7,1.6-1.6,1.6h-44c-0.9,0-1.6-0.7-1.6-1.6v-1.1
	C164.5,103,165.2,102.3,166.1,102.3z"/>
<path class="st12" d="M105.8,102.3H160c0.9,0,1.6,0.7,1.6,1.6v1.1c0,0.9-0.7,1.6-1.6,1.6h-54.3c-0.9,0-1.6-0.7-1.6-1.6v-1.1
	C104.1,103,104.8,102.3,105.8,102.3z"/>
<g>
	<path class="st13" d="M279.1,50h-9.9c-1.1,0-1.9,0.9-1.9,2l0.1,2.5c0,1.5-1.6,2.5-2.9,1.7l-9.2-5.8c-0.3-0.2-0.6-0.3-1-0.3h-125
		c-1.1,0-1.9-0.8-1.9-1.9V1.9c0-1,0.8-1.9,1.9-1.9h149.9c1,0,1.9,0.9,1.9,1.9v46.2C281,49.2,280.2,50,279.1,50L279.1,50z"/>
	<path class="st8" d="M268.1,23.2H164c-0.9,0-1.6-0.7-1.6-1.6v-1.1c0-0.9,0.7-1.6,1.6-1.6h104.1c0.9,0,1.6,0.7,1.6,1.6v1.1
		C269.8,22.5,269,23.2,268.1,23.2z"/>
	<path class="st8" d="M235.5,30.4H164c-0.9,0-1.6-0.7-1.6-1.6v-1.1c0-0.9,0.7-1.6,1.6-1.6h71.5c0.9,0,1.6,0.7,1.6,1.6v1.1
		C237.1,29.7,236.4,30.4,235.5,30.4z"/>
	<path class="st8" d="M268.4,30.4h-26c-0.9,0-1.6-0.7-1.6-1.6v-1.1c0-0.9,0.7-1.6,1.6-1.6h26c0.9,0,1.6,0.7,1.6,1.6v1.1
		C270,29.7,269.3,30.4,268.4,30.4z"/>
	<path class="st8" d="M207.8,37.5h-44c-0.9,0-1.6-0.7-1.6-1.6v-1.1c0-0.9,0.7-1.6,1.6-1.6h44c0.9,0,1.6,0.7,1.6,1.6v1.1
		C209.5,36.8,208.7,37.5,207.8,37.5z"/>
	<path class="st8" d="M268.2,37.5H214c-0.9,0-1.6-0.7-1.6-1.6v-1.1c0-0.9,0.7-1.6,1.6-1.6h54.3c0.9,0,1.6,0.7,1.6,1.6v1.1
		C269.9,36.8,269.1,37.5,268.2,37.5z"/>
</g>
<g>
	<path class="st9" d="M259.2,237.6c0,0,0.7-0.1,2-0.4"/>
	<path class="st14" d="M265.1,236.1c8.7-2.5,25.5-8.4,40-20.8c18.8-16.1,19.9-55.8,9.3-53.1c-12.7,3.2-8.9,14.5-7.2,16.6
		s16.6,18.5,32.5,0.2c13.3-15.3-5.2-49.8-11.7-60.8"/>
	<path class="st9" d="M326.9,116.5c-0.7-1.1-1.1-1.7-1.1-1.7"/>
</g>
<path class="st4" d="M274.9,230.7v12.5c0,0.8,1,1.2,1.6,0.7l31.5-31.1c0.1-0.1,0-0.3-0.2-0.2l-32.5,17.3
	C275,230.1,274.9,230.4,274.9,230.7L274.9,230.7z"/>
<path class="st6" d="M267.4,224.6l40.4-12l-31.3,19c-0.4,0.3-1,0.3-1.4,0l-8-4.5C266,226.6,266.2,225,267.4,224.6L267.4,224.6z"/>
<path class="st6" d="M283.8,234.4l9,4.9c0.7,0.4,1.5,0.1,1.9-0.6l13.3-25.9l-24.4,19.2C282.9,232.7,283,233.9,283.8,234.4
	L283.8,234.4z"/>
<rect x="84.5" y="16.6" transform="matrix(0.6731 -0.7395 0.7395 0.6731 3.6661 75.3723)" class="st10" width="5.2" height="33.8"/>
<rect x="100.6" y="20.2" transform="matrix(0.8059 -0.592 0.592 0.8059 2.1423 66.9739)" class="st15" width="5.2" height="20"/>
<rect x="86.8" y="45.8" transform="matrix(0.4019 -0.9157 0.9157 0.4019 7.1513 112.0984)" class="st15" width="5.2" height="9.5"/>
<path class="st16" d="M317.2,107.8c-3.9-2.5-7.8-4.1-11.4-3.9c-2.5-2.9-5-5.1-6.7-4.8c-1.7,0.2-10.6,7.8-11.4,8.7s-0.4,1.4-0.4,1.4
	s-4.9,3.5-5.8,10.2c3.4,1.4,7.1,2.1,10.9,2.1C303,121.5,312.1,116,317.2,107.8L317.2,107.8z"/>
<path class="st8" d="M286.8,91.2c0.6-0.1,1.3-4.1,3.9-3.8c2.5,0.3,4.4,5.7,1,6.6c0.8,1.9-0.1,0.5,1,5.3s-1.5,4.4-0.2,9.8
	s2.9,10.5,7.1,9.8s15.6-11.3,7-23.5c-2.8-3.9-0.5-9.2-0.7-12.2c-0.2-2.9-2.6-6.2-5.2-8.4c-2.5-2.1-6.1-3.3-10.2-3.5
	c-3.2-0.2-6.1,3.6-9.4,4.8c-3.3,1.2-7.3,1.7-7.8,3.8c-1.8,7.1,5.1,17.3,5.1,12.5s9.1-9.8,7.5-6.8S286.2,91.3,286.8,91.2L286.8,91.2z
	"/>
</svg>
